<?xml version="1.0" encoding="UTF-8" ?>
<!DOCTYPE svg PUBLIC "-//W3C//DTD SVG 1.1//EN" "http://www.w3.org/Graphics/SVG/1.1/DTD/svg11.dtd">
<svg width="52pt" height="62pt" viewBox="0 0 52 62" version="1.1" xmlns="http://www.w3.org/2000/svg">
<g id="#a5ca39ff">
<path fill="#a5ca39" opacity="1.00" d=" M 14.30 0.00 L 15.27 0.00 C 16.43 1.77 17.47 3.62 18.50 5.47 C 23.23 3.59 28.54 3.53 33.26 5.49 C 34.22 3.65 35.17 1.79 36.24 0.00 L 36.97 0.00 C 36.53 2.15 35.57 4.13 34.36 5.94 C 39.38 8.75 42.73 13.79 43.34 19.52 C 38.79 19.63 34.23 19.55 29.68 19.67 C 25.57 20.38 21.37 20.35 17.26 19.67 C 14.29 19.62 11.32 19.56 8.34 19.55 C 8.94 13.80 12.25 8.65 17.36 5.92 C 16.17 4.04 15.15 2.06 14.30 0.00 M 17.24 10.22 C 14.85 10.86 16.54 15.04 18.72 13.74 C 21.24 13.03 19.46 8.93 17.24 10.22 M 31.91 12.88 C 33.51 15.46 36.09 12.76 35.50 10.55 C 33.68 9.32 30.88 10.38 31.91 12.88 Z" />
<path fill="#a5ca39" opacity="1.00" d=" M 44.64 22.66 C 45.87 19.33 50.54 19.84 52.00 22.73 L 52.00 40.60 C 51.37 43.18 48.30 44.62 46.05 43.11 C 43.91 41.71 44.46 38.91 44.35 36.74 C 44.58 32.05 44.02 27.32 44.64 22.66 Z" />
<path fill="#a5ca39" opacity="1.00" d=" M 0.00 22.81 C 1.03 18.88 7.44 19.87 7.26 23.90 C 7.35 29.57 7.53 35.29 7.16 40.95 C 6.41 44.34 1.82 44.46 0.00 41.90 L 0.00 22.81 Z" />
<path fill="#a5ca39" opacity="1.00" d=" M 8.63 21.17 C 20.14 21.20 31.64 21.09 43.15 21.23 C 42.34 29.71 43.24 38.25 42.69 46.73 C 42.26 49.85 38.50 49.70 36.12 49.79 C 35.86 53.90 37.59 59.41 33.32 62.00 L 31.58 62.00 C 26.49 60.04 28.98 53.74 28.45 49.65 C 26.75 49.65 25.04 49.64 23.34 49.63 C 22.90 53.62 24.86 58.86 21.11 61.70 C 18.78 62.73 16.92 61.02 15.56 59.35 C 15.65 56.16 15.60 52.97 15.60 49.78 C 14.02 49.65 12.41 49.68 10.86 49.30 C 9.00 48.28 8.50 46.02 8.61 44.05 C 8.70 36.42 8.74 28.79 8.63 21.17 Z" />
</g>
<g id="#ebf3d3fe">
<path fill="#ebf3d3" opacity="1.00" d=" M 17.24 10.22 C 19.46 8.93 21.24 13.03 18.72 13.74 C 16.54 15.04 14.85 10.86 17.24 10.22 Z" />
<path fill="#ebf3d3" opacity="1.00" d=" M 31.91 12.88 C 30.88 10.38 33.68 9.32 35.50 10.55 C 36.09 12.76 33.51 15.46 31.91 12.88 Z" />
</g>
</svg>
