<?xml version="1.0" encoding="UTF-8" ?>
<!DOCTYPE svg PUBLIC "-//W3C//DTD SVG 1.1//EN" "http://www.w3.org/Graphics/SVG/1.1/DTD/svg11.dtd">
<svg width="483pt" height="600pt" viewBox="0 0 483 600" version="1.1" xmlns="http://www.w3.org/2000/svg">
<g id="#aaaaaaff">
<path fill="#aaaaaa" opacity="1.00" d=" M 287.96 31.93 C 308.01 15.85 332.44 4.37 358.27 2.35 C 360.07 12.01 359.07 21.91 357.84 31.57 C 352.67 63.92 335.63 94.44 310.28 115.29 C 290.89 130.96 266.09 141.86 240.74 139.57 C 237.83 118.80 243.05 97.61 251.84 78.83 C 260.35 60.88 272.41 44.41 287.96 31.93 Z" />
<path fill="#aaaaaa" opacity="1.00" d=" M 274.57 165.56 C 300.39 155.26 327.33 143.92 355.74 146.21 C 388.61 147.51 421.53 159.64 445.68 182.31 C 452.87 189.32 460.08 196.64 465.00 205.47 C 460.76 208.78 456.17 211.61 452.05 215.06 C 431.10 232.11 414.67 255.14 407.04 281.18 C 399.47 306.93 400.39 334.90 408.50 360.40 C 418.67 391.89 442.00 418.39 470.96 434.07 C 474.15 435.72 477.41 437.26 480.51 439.09 C 476.46 453.86 470.28 467.98 463.86 481.85 C 456.52 497.29 447.94 512.14 438.27 526.24 C 427.42 542.12 416.50 558.18 402.66 571.65 C 393.40 580.91 382.50 588.84 370.04 593.13 C 355.42 598.17 339.29 597.53 324.57 593.24 C 311.72 589.49 300.00 582.79 287.33 578.55 C 269.92 572.51 250.96 571.78 232.88 574.74 C 216.46 577.44 201.63 585.28 186.27 591.22 C 178.14 594.29 169.62 596.29 160.99 597.33 C 146.29 599.02 131.55 593.75 119.54 585.51 C 103.26 574.31 90.58 558.85 78.88 543.13 C 70.13 531.08 61.51 518.90 53.87 506.10 C 39.61 481.93 28.30 456.06 19.68 429.37 C 5.42 384.71 -1.66 337.05 4.56 290.32 C 8.82 258.65 20.28 227.47 40.35 202.35 C 62.64 174.13 95.62 154.19 131.36 149.15 C 140.15 148.03 149.08 147.14 157.93 148.15 C 174.98 149.74 191.13 155.88 206.89 162.21 C 217.72 166.41 228.45 171.28 239.97 173.24 C 252.06 175.08 263.52 169.61 274.57 165.56 Z" />
</g>
</svg>
