<?xml version="1.0" encoding="UTF-8" ?>
<!DOCTYPE svg PUBLIC "-//W3C//DTD SVG 1.1//EN" "http://www.w3.org/Graphics/SVG/1.1/DTD/svg11.dtd">
<svg width="456pt" height="456pt" viewBox="0 0 456 456" version="1.1" xmlns="http://www.w3.org/2000/svg">
<g id="#ffffffff">
<path fill="#ffffff" opacity="1.00" d=" M 58.14 16.00 C 75.94 6.91 96.29 4.58 116.02 4.44 C 172.34 4.06 228.66 4.36 284.98 4.26 C 306.34 4.28 327.69 4.17 349.04 4.57 C 363.61 5.40 378.42 7.23 392.00 12.93 C 415.20 22.26 434.22 41.39 443.49 64.60 C 450.06 80.52 451.60 97.92 451.84 114.97 C 452.30 140.64 451.93 166.32 452.05 192.00 C 452.05 223.99 452.05 255.98 452.05 287.98 C 451.90 311.35 452.55 334.75 451.11 358.10 C 449.92 369.43 447.80 380.80 443.39 391.37 C 431.57 421.20 403.36 443.51 371.75 448.64 C 358.67 451.10 345.33 451.47 332.06 451.53 C 264.03 451.65 195.99 451.61 127.96 451.55 C 111.59 451.51 95.05 451.21 79.05 447.38 C 55.28 441.90 33.95 426.72 21.00 406.05 C 15.23 397.00 11.18 386.92 8.69 376.50 C 3.68 353.03 4.57 328.90 4.46 305.06 C 4.48 246.03 4.43 187.00 4.49 127.97 C 4.83 105.14 5.35 81.31 15.27 60.25 C 24.02 41.22 39.42 25.38 58.14 16.00 M 213.94 51.37 C 194.46 54.05 176.26 63.59 162.11 77.09 C 149.16 89.68 140.90 106.94 139.34 124.94 C 137.35 144.86 141.93 166.03 154.93 181.65 L 155.27 181.61 C 159.18 186.71 164.14 190.88 169.22 194.78 C 180.04 202.84 192.13 209.26 205.01 213.33 C 198.77 215.34 192.38 217.15 186.48 220.05 C 177.37 223.85 168.75 228.84 160.88 234.80 C 144.28 247.37 131.52 265.28 126.18 285.49 L 125.96 285.52 C 124.77 290.23 123.54 294.99 123.26 299.87 C 122.12 307.20 122.63 314.70 123.47 322.04 C 124.64 331.17 127.33 340.05 131.01 348.47 L 131.34 348.47 C 140.32 367.57 155.84 384.34 175.66 392.32 C 188.17 397.61 201.42 401.24 214.96 402.58 C 221.89 402.85 228.82 403.75 235.76 403.12 C 250.06 402.66 264.45 400.38 277.77 394.97 C 295.09 388.11 310.05 375.62 320.06 359.92 C 326.28 350.29 330.71 339.40 332.66 328.09 C 338.00 302.72 330.75 275.52 315.21 255.00 C 309.41 247.22 302.11 240.61 294.16 235.10 C 289.16 231.74 283.98 228.59 278.47 226.15 C 270.21 222.32 261.72 218.95 252.97 216.40 C 252.70 216.22 252.16 215.86 251.89 215.68 C 252.91 215.26 253.93 214.84 254.95 214.42 C 266.95 209.86 278.41 203.55 288.02 194.98 C 295.92 187.84 303.59 180.14 308.78 170.73 C 312.46 164.27 314.95 157.18 316.43 149.90 C 319.56 133.27 318.70 115.59 312.10 99.87 C 304.86 82.43 290.64 68.21 273.64 60.16 L 273.60 59.94 C 266.28 56.46 258.57 53.67 250.57 52.27 L 250.77 52.05 C 238.66 49.70 226.13 49.64 213.94 51.37 Z" />
<path fill="#ffffff" opacity="1.00" d=" M 194.49 67.67 C 210.50 60.98 228.40 60.08 245.46 62.18 C 255.33 63.71 264.74 67.49 273.29 72.59 C 286.19 81.56 297.84 93.44 303.39 108.41 C 306.46 116.88 307.52 126.02 306.85 134.98 C 306.34 144.70 304.58 154.54 300.12 163.29 C 295.00 173.53 286.63 181.67 277.97 188.97 C 266.12 198.87 251.83 205.20 237.39 210.31 C 236.35 210.50 235.28 210.83 234.23 210.52 C 210.84 204.49 187.25 195.96 168.65 180.05 C 158.56 170.64 152.42 157.53 150.71 143.91 C 149.48 132.73 149.72 121.12 153.57 110.43 C 160.05 91.02 175.83 75.59 194.49 67.67 Z" />
<path fill="#ffffff" opacity="1.00" d=" M 186.48 232.06 C 197.83 226.52 209.75 221.88 222.08 219.13 C 236.03 222.32 249.91 226.14 263.27 231.34 C 269.27 233.94 275.34 236.41 280.98 239.75 C 289.72 244.67 297.59 251.13 304.11 258.76 C 318.19 275.01 324.63 297.24 322.68 318.54 C 321.84 330.60 317.71 342.27 311.58 352.64 C 303.23 365.39 291.98 376.55 277.99 382.92 C 274.44 384.64 270.67 385.82 267.01 387.25 C 258.77 389.58 250.29 391.07 241.74 391.62 C 233.06 392.27 224.37 392.08 215.69 391.52 C 198.27 390.05 180.61 385.27 166.55 374.49 C 156.79 366.96 148.35 357.47 142.70 346.47 C 138.54 338.35 135.73 329.56 134.50 320.52 C 133.50 313.84 133.51 307.05 134.24 300.34 C 134.66 294.69 136.30 289.24 137.96 283.85 C 145.88 260.63 164.76 242.63 186.48 232.06 Z" />
</g>
<g id="#ffbc26ff">
<path fill="#ffbc26" opacity="1.00" d=" M 213.94 51.37 C 226.13 49.64 238.66 49.70 250.77 52.05 L 250.57 52.27 C 250.16 52.72 249.34 53.61 248.93 54.06 C 250.87 54.43 252.81 54.78 254.75 55.16 C 253.98 56.89 253.19 58.61 252.37 60.31 C 249.97 60.48 247.33 60.38 245.46 62.18 C 228.40 60.08 210.50 60.98 194.49 67.67 C 175.83 75.59 160.05 91.02 153.57 110.43 C 149.72 121.12 149.48 132.73 150.71 143.91 C 152.42 157.53 158.56 170.64 168.65 180.05 C 167.66 182.62 170.46 183.80 171.94 185.27 C 168.68 185.28 165.42 185.60 162.25 186.36 C 160.56 184.65 158.90 182.91 157.02 181.41 C 156.58 181.46 155.71 181.56 155.27 181.61 L 154.93 181.65 C 141.93 166.03 137.35 144.86 139.34 124.94 C 140.90 106.94 149.16 89.68 162.11 77.09 C 176.26 63.59 194.46 54.05 213.94 51.37 Z" />
</g>
<g id="#fe6e28ff">
<path fill="#fe6e28" opacity="1.00" d=" M 248.93 54.06 C 249.34 53.61 250.16 52.72 250.57 52.27 C 258.57 53.67 266.28 56.46 273.60 59.94 L 273.64 60.16 C 273.69 60.52 273.80 61.24 273.85 61.60 C 277.71 64.09 282.05 66.03 285.20 69.47 C 284.66 72.09 283.66 74.60 283.16 77.24 C 279.75 75.90 277.25 72.08 273.29 72.59 C 264.74 67.49 255.33 63.71 245.46 62.18 C 247.33 60.38 249.97 60.48 252.37 60.31 C 253.19 58.61 253.98 56.89 254.75 55.16 C 252.81 54.78 250.87 54.43 248.93 54.06 Z" />
<path fill="#fe6e28" opacity="1.00" d=" M 155.27 181.61 C 155.71 181.56 156.58 181.46 157.02 181.41 C 158.90 182.91 160.56 184.65 162.25 186.36 C 165.42 185.60 168.68 185.28 171.94 185.27 C 170.46 183.80 167.66 182.62 168.65 180.05 C 187.25 195.96 210.84 204.49 234.23 210.52 C 235.28 210.83 236.35 210.50 237.39 210.31 C 242.09 213.52 247.76 205.12 251.62 210.08 C 253.38 210.37 255.14 210.69 256.90 211.02 C 255.57 212.01 254.22 212.96 252.90 213.96 C 253.42 214.07 254.44 214.30 254.95 214.42 C 253.93 214.84 252.91 215.26 251.89 215.68 C 252.16 215.86 252.70 216.22 252.97 216.40 C 261.72 218.95 270.21 222.32 278.47 226.15 C 273.08 226.68 267.98 228.76 263.27 231.34 C 249.91 226.14 236.03 222.32 222.08 219.13 C 209.75 221.88 197.83 226.52 186.48 232.06 C 184.77 230.64 181.96 229.58 182.03 226.93 C 181.55 224.13 184.72 223.31 186.39 221.85 C 186.41 221.40 186.46 220.50 186.48 220.05 C 192.38 217.15 198.77 215.34 205.01 213.33 C 192.13 209.26 180.04 202.84 169.22 194.78 C 164.14 190.88 159.18 186.71 155.27 181.61 Z" />
<path fill="#fe6e28" opacity="1.00" d=" M 131.61 278.61 C 133.49 278.06 135.42 278.86 137.28 279.18 C 137.41 280.75 137.63 282.31 137.96 283.85 C 136.30 289.24 134.66 294.69 134.24 300.34 C 133.48 299.41 132.81 298.40 131.92 297.60 C 129.94 297.34 127.95 297.56 125.98 297.67 C 125.46 299.19 124.95 300.71 124.41 302.23 C 124.12 301.64 123.54 300.46 123.26 299.87 C 123.54 294.99 124.77 290.23 125.96 285.52 L 126.18 285.49 C 126.55 285.44 127.30 285.33 127.67 285.28 C 128.93 283.05 129.37 280.11 131.61 278.61 Z" />
</g>
<g id="#ff511aff">
<path fill="#ff511a" opacity="1.00" d=" M 273.85 61.60 C 273.80 61.24 273.69 60.52 273.64 60.16 C 290.64 68.21 304.86 82.43 312.10 99.87 C 318.70 115.59 319.56 133.27 316.43 149.90 C 314.95 157.18 312.46 164.27 308.78 170.73 C 303.59 180.14 295.92 187.84 288.02 194.98 C 278.41 203.55 266.95 209.86 254.95 214.42 C 254.44 214.30 253.42 214.07 252.90 213.96 C 254.22 212.96 255.57 212.01 256.90 211.02 C 255.14 210.69 253.38 210.37 251.62 210.08 C 247.76 205.12 242.09 213.52 237.39 210.31 C 251.83 205.20 266.12 198.87 277.97 188.97 C 286.63 181.67 295.00 173.53 300.12 163.29 C 304.58 154.54 306.34 144.70 306.85 134.98 C 307.52 126.02 306.46 116.88 303.39 108.41 C 297.84 93.44 286.19 81.56 273.29 72.59 C 277.25 72.08 279.75 75.90 283.16 77.24 C 283.66 74.60 284.66 72.09 285.20 69.47 C 282.05 66.03 277.71 64.09 273.85 61.60 Z" />
<path fill="#ff511a" opacity="1.00" d=" M 160.88 234.80 C 168.75 228.84 177.37 223.85 186.48 220.05 C 186.46 220.50 186.41 221.40 186.39 221.85 C 184.72 223.31 181.55 224.13 182.03 226.93 C 181.96 229.58 184.77 230.64 186.48 232.06 C 164.76 242.63 145.88 260.63 137.96 283.85 C 137.63 282.31 137.41 280.75 137.28 279.18 C 135.42 278.86 133.49 278.06 131.61 278.61 C 129.37 280.11 128.93 283.05 127.67 285.28 C 127.30 285.33 126.55 285.44 126.18 285.49 C 131.52 265.28 144.28 247.37 160.88 234.80 Z" />
</g>
<g id="#cb815dff">
<path fill="#cb815d" opacity="1.00" d=" M 278.47 226.15 C 283.98 228.59 289.16 231.74 294.16 235.10 C 289.95 237.12 285.51 238.64 280.98 239.75 C 275.34 236.41 269.27 233.94 263.27 231.34 C 267.98 228.76 273.08 226.68 278.47 226.15 Z" />
<path fill="#cb815d" opacity="1.00" d=" M 125.98 297.67 C 127.95 297.56 129.94 297.34 131.92 297.60 C 132.81 298.40 133.48 299.41 134.24 300.34 C 133.51 307.05 133.50 313.84 134.50 320.52 C 130.79 320.59 126.80 319.97 123.47 322.04 C 122.63 314.70 122.12 307.20 123.26 299.87 C 123.54 300.46 124.12 301.64 124.41 302.23 C 124.95 300.71 125.46 299.19 125.98 297.67 Z" />
</g>
<g id="#798c98fa">
<path fill="#798c98" opacity="0.98" d=" M 294.16 235.10 C 302.11 240.61 309.41 247.22 315.21 255.00 C 311.68 256.69 308.08 258.45 304.11 258.76 C 297.59 251.13 289.72 244.67 280.98 239.75 C 285.51 238.64 289.95 237.12 294.16 235.10 Z" />
</g>
<g id="#01a6e1ff">
<path fill="#01a6e1" opacity="1.00" d=" M 304.11 258.76 C 308.08 258.45 311.68 256.69 315.21 255.00 C 330.75 275.52 338.00 302.72 332.66 328.09 C 332.48 327.58 332.12 326.55 331.94 326.03 C 331.33 326.82 330.72 327.61 330.11 328.40 C 327.92 328.52 325.73 328.61 323.54 328.70 C 324.00 325.31 325.28 321.41 322.68 318.54 C 324.63 297.24 318.19 275.01 304.11 258.76 Z" />
<path fill="#01a6e1" opacity="1.00" d=" M 215.69 391.52 C 224.37 392.08 233.06 392.27 241.74 391.62 C 242.77 392.41 243.80 393.21 244.83 394.01 C 242.87 396.75 238.99 398.70 239.31 402.54 C 238.11 402.70 236.94 402.93 235.76 403.12 C 228.82 403.75 221.89 402.85 214.96 402.58 C 217.35 400.08 217.71 396.63 218.42 393.42 C 217.51 392.77 216.60 392.14 215.69 391.52 Z" />
</g>
<g id="#0482eaff">
<path fill="#0482ea" opacity="1.00" d=" M 322.68 318.54 C 325.28 321.41 324.00 325.31 323.54 328.70 C 325.73 328.61 327.92 328.52 330.11 328.40 C 330.72 327.61 331.33 326.82 331.94 326.03 C 332.12 326.55 332.48 327.58 332.66 328.09 C 330.71 339.40 326.28 350.29 320.06 359.92 C 316.63 362.80 312.80 360.14 309.40 358.74 C 310.45 356.83 311.16 354.77 311.58 352.64 C 317.71 342.27 321.84 330.60 322.68 318.54 Z" />
<path fill="#0482ea" opacity="1.00" d=" M 241.74 391.62 C 250.29 391.07 258.77 389.58 267.01 387.25 C 263.33 391.33 257.37 391.02 252.56 392.83 C 249.83 394.99 247.02 398.00 247.57 401.79 C 244.82 402.12 242.06 402.30 239.31 402.54 C 238.99 398.70 242.87 396.75 244.83 394.01 C 243.80 393.21 242.77 392.41 241.74 391.62 Z" />
</g>
<g id="#7bc080ff">
<path fill="#7bc080" opacity="1.00" d=" M 123.47 322.04 C 126.80 319.97 130.79 320.59 134.50 320.52 C 135.73 329.56 138.54 338.35 142.70 346.47 C 138.68 345.75 135.40 349.17 131.34 348.47 L 131.01 348.47 C 127.33 340.05 124.64 331.17 123.47 322.04 Z" />
</g>
<g id="#01e8b6ff">
<path fill="#01e8b6" opacity="1.00" d=" M 131.34 348.47 C 135.40 349.17 138.68 345.75 142.70 346.47 C 148.35 357.47 156.79 366.96 166.55 374.49 C 180.61 385.27 198.27 390.05 215.69 391.52 C 216.60 392.14 217.51 392.77 218.42 393.42 C 217.71 396.63 217.35 400.08 214.96 402.58 C 201.42 401.24 188.17 397.61 175.66 392.32 C 155.84 384.34 140.32 367.57 131.34 348.47 Z" />
</g>
<g id="#2367e7ff">
<path fill="#2367e7" opacity="1.00" d=" M 311.58 352.64 C 311.16 354.77 310.45 356.83 309.40 358.74 C 312.80 360.14 316.63 362.80 320.06 359.92 C 310.05 375.62 295.09 388.11 277.77 394.97 C 264.45 400.38 250.06 402.66 235.76 403.12 C 236.94 402.93 238.11 402.70 239.31 402.54 C 242.06 402.30 244.82 402.12 247.57 401.79 C 247.02 398.00 249.83 394.99 252.56 392.83 C 257.37 391.02 263.33 391.33 267.01 387.25 C 270.67 385.82 274.44 384.64 277.99 382.92 C 291.98 376.55 303.23 365.39 311.58 352.64 Z" />
</g>
</svg>
