<?xml version="1.0" encoding="UTF-8" ?>
<!DOCTYPE svg PUBLIC "-//W3C//DTD SVG 1.1//EN" "http://www.w3.org/Graphics/SVG/1.1/DTD/svg11.dtd">
<svg width="58pt" height="64pt" viewBox="0 0 58 64" version="1.1" xmlns="http://www.w3.org/2000/svg">
<g id="#7fba00ff">
<path fill="#7fba00" opacity="1.00" d=" M 24.25 7.10 C 35.37 4.48 46.62 2.45 57.80 0.17 C 57.89 10.53 57.92 20.89 57.79 31.25 C 46.63 31.28 35.46 31.35 24.30 31.22 C 24.21 23.18 24.28 15.14 24.25 7.10 Z" />
</g>
<g id="#f25022ff">
<path fill="#f25022" opacity="1.00" d=" M 0.23 11.83 C 7.18 10.36 14.14 8.90 21.14 7.64 C 21.26 15.50 21.23 23.36 21.16 31.22 C 14.19 31.37 7.21 31.30 0.24 31.26 C 0.13 24.79 0.14 18.31 0.23 11.83 Z" />
</g>
<g id="#01a4efff">
<path fill="#01a4ef" opacity="1.00" d=" M 0.24 33.81 C 7.21 33.77 14.19 33.72 21.16 33.83 C 21.25 41.72 21.24 49.60 21.16 57.48 C 14.15 56.19 7.17 54.74 0.20 53.24 C 0.17 46.76 0.12 40.28 0.24 33.81 Z" />
</g>
<g id="#ffb901ff">
<path fill="#ffb901" opacity="1.00" d=" M 24.31 33.84 C 35.54 33.70 46.77 33.81 58.00 33.79 L 58.00 64.00 L 52.74 64.00 C 43.30 61.96 33.81 60.16 24.35 58.18 C 24.17 50.07 24.25 41.95 24.31 33.84 Z" />
</g>
</svg>
